<?xml version="1.0" standalone="no"?>
<!DOCTYPE svg PUBLIC "-//W3C//DTD SVG 20010904//EN"
 "http://www.w3.org/TR/2001/REC-SVG-20010904/DTD/svg10.dtd">
<svg version="1.0" xmlns="http://www.w3.org/2000/svg"
 width="300.000000pt" height="230.000000pt" viewBox="0 0 300.000000 230.000000"
 preserveAspectRatio="xMidYMid meet">
<metadata>
Created by potrace 1.10, written by Peter Selinger 2001-2011
</metadata>
<g transform="translate(0.000000,230.000000) scale(0.100000,-0.100000)"
fill="#000000" stroke="none">
<path d="M1430 2193 c0 -6 17 -13 38 -16 49 -8 123 -56 145 -96 16 -28 16 -31
2 -31 -9 0 -28 6 -43 13 -42 21 -194 41 -256 33 -64 -7 -216 -53 -216 -65 0
-5 39 2 88 14 85 23 132 29 182 25 14 -1 -6 -8 -45 -15 -38 -7 -99 -27 -134
-46 -55 -29 -73 -47 -138 -134 -73 -98 -120 -138 -175 -150 -15 -4 -31 -11
-34 -17 -9 -14 94 -3 131 14 33 15 41 6 25 -32 -17 -40 -82 -93 -145 -118 -41
-16 -46 -20 -28 -26 21 -7 134 7 153 19 19 11 10 -12 -19 -51 -31 -44 -83 -91
-118 -107 -12 -5 -20 -13 -18 -18 7 -10 161 38 201 62 17 10 33 16 36 13 8 -7
-10 -81 -27 -114 -8 -16 -25 -36 -37 -44 -19 -13 -20 -16 -5 -16 23 0 94 45
109 70 7 11 18 20 25 20 13 0 -1 -67 -18 -85 -5 -5 -9 -16 -9 -24 0 -19 37 13
45 40 8 26 23 24 27 -3 2 -13 36 -49 87 -90 73 -60 87 -68 120 -66 30 3 36 0
39 -19 3 -18 -4 -23 -48 -32 -28 -6 -58 -11 -67 -11 -13 0 -15 -8 -10 -43 6
-39 4 -45 -21 -59 -72 -43 -152 -130 -192 -210 -22 -44 -40 -85 -40 -92 0 -8
31 -10 101 -9 l101 2 42 39 c49 45 143 110 246 169 75 44 68 48 -28 16 -24 -8
-45 -13 -46 -11 -2 2 -1 36 2 76 l4 72 127 40 c187 58 179 57 173 21 -2 -16 3
-43 11 -60 l15 -30 -66 -37 c-126 -70 -432 -282 -432 -299 0 -1 55 -1 121 1
l122 3 32 57 c54 94 179 206 268 240 36 13 15 -13 -35 -43 -66 -39 -157 -127
-203 -196 -19 -28 -35 -54 -35 -57 0 -3 153 -5 340 -5 187 0 340 2 340 3 0 2
-22 36 -48 75 -27 40 -63 95 -80 123 -53 85 -70 96 -163 104 -76 7 -84 10
-108 39 -14 17 -31 31 -38 31 -9 0 -10 14 -6 49 5 44 4 49 -18 54 -13 4 -34 7
-46 7 -20 0 -23 5 -23 45 0 50 12 57 42 23 l20 -23 -7 25 c-15 59 -17 70 -9
70 5 0 20 -21 33 -46 35 -65 117 -134 226 -188 141 -71 207 -149 189 -223 -8
-30 12 -30 22 0 4 12 7 48 7 79 0 99 -52 151 -208 209 -74 27 -125 62 -190
128 -45 47 -46 70 -1 36 36 -27 37 -16 5 25 -18 22 -29 43 -26 47 4 3 29 -6
56 -20 71 -39 79 -33 30 20 -34 38 -40 48 -27 51 9 2 26 -2 37 -7 11 -6 35
-11 53 -11 l33 0 -42 19 c-23 11 -46 29 -53 40 -13 25 -6 26 50 6 23 -8 49
-15 56 -15 22 0 16 17 -8 24 -13 3 -34 15 -48 27 l-25 20 46 -6 c47 -6 185 18
204 36 5 5 -13 9 -44 9 -60 0 -108 24 -141 70 -29 41 -26 47 28 52 48 5 202
65 202 78 0 4 -18 3 -40 -2 -45 -12 -95 -2 -173 32 -49 22 -54 40 -11 40 26 0
129 48 121 56 -3 3 -23 0 -45 -7 -55 -16 -121 1 -192 50 -30 21 -68 43 -85 49
-25 10 -18 11 50 8 44 -1 91 -7 105 -11 22 -8 24 -7 12 8 -33 40 -147 58 -203
33 -13 -6 -18 0 -23 28 -9 47 -79 108 -148 129 -70 22 -158 32 -158 20z m269
-152 c24 -43 96 -103 198 -164 44 -26 53 -36 53 -60 0 -22 9 -33 45 -55 24
-15 45 -30 45 -34 0 -4 -12 -10 -27 -14 -16 -3 -36 -8 -45 -10 -12 -4 -26 8
-45 39 -70 112 -152 185 -273 244 -36 18 -59 33 -51 33 22 0 51 31 51 52 0 31
23 16 49 -31z m-176 3 c15 -3 27 -9 27 -14 0 -16 -67 -20 -132 -8 -65 12 -66
13 -40 24 25 12 74 11 145 -2z m53 -59 c103 -30 234 -136 310 -250 34 -50 34
-51 23 -115 -17 -94 -23 -101 -46 -49 -28 63 -115 128 -218 164 -27 9 -57 20
-65 23 -8 4 14 9 50 12 64 5 65 6 37 20 -24 12 -35 12 -75 0 -66 -19 -120 -16
-151 9 -43 36 -91 53 -139 50 -61 -4 -67 17 -9 32 35 10 46 19 55 42 7 17 10
32 8 34 -2 2 -27 -10 -56 -27 -35 -21 -56 -28 -63 -21 -18 18 1 39 58 60 78
29 126 27 199 -10 69 -35 201 -132 210 -154 6 -16 76 -22 76 -7 0 5 -27 35
-60 66 -53 51 -88 71 -210 124 -22 10 -23 11 -4 11 11 1 43 -6 70 -14z m-386
-50 c56 -29 63 -70 24 -127 -21 -30 -31 -37 -49 -32 -31 8 -80 -51 -101 -123
-9 -32 -18 -65 -21 -73 -4 -13 -5 -13 -13 0 -12 19 -13 66 -1 88 4 9 11 31 15
47 7 29 7 29 -8 10 -15 -19 -16 -16 -10 35 7 59 17 77 49 82 14 2 21 -3 23
-19 3 -19 -1 -23 -22 -23 -16 0 -26 -6 -26 -14 0 -23 13 -26 54 -12 33 11 35
14 20 26 -20 18 -15 84 11 123 20 32 18 31 55 12z m137 -128 c9 -6 9 -15 2
-34 -12 -32 -14 -81 -5 -110 11 -36 -19 -29 -48 10 -38 49 -51 94 -35 113 23
28 61 37 86 21z m106 -49 l28 -23 -51 -37 c-56 -42 -74 -47 -66 -20 2 9 7 33
11 52 15 79 16 79 78 28z m-219 -54 c14 -31 46 -70 82 -102 65 -58 98 -70 65
-23 -24 34 -26 41 -8 41 7 0 36 21 65 46 46 40 55 44 69 33 18 -15 18 -15 -3
36 -11 27 13 16 46 -22 64 -72 75 -136 34 -190 -37 -49 -7 -41 42 12 23 25 45
45 49 45 12 0 -7 -84 -27 -117 -26 -43 -8 -42 42 3 24 22 47 55 58 87 15 39
27 55 47 62 23 8 30 6 51 -18 13 -15 29 -45 35 -67 10 -33 9 -43 -5 -65 -28
-43 -105 -86 -149 -83 -30 2 -41 -2 -49 -17 -33 -62 -151 -145 -255 -179 l-51
-17 -80 67 c-84 69 -89 78 -115 184 -10 45 -12 69 -5 78 15 17 25 15 31 -8 3
-12 14 -20 26 -20 12 0 21 -4 21 -10 0 -5 -4 -10 -10 -10 -16 0 -11 -33 9 -57
11 -13 22 -23 25 -23 13 0 5 50 -10 58 -15 8 -15 12 0 40 21 40 20 55 -3 76
-20 18 -89 41 -98 32 -3 -2 15 -10 38 -17 l44 -12 -33 -7 c-18 -4 -39 -16 -47
-26 -13 -18 -14 -18 -24 9 -6 16 -11 40 -11 54 0 27 4 27 85 7 23 -6 26 -4 23
12 -2 15 -14 20 -52 22 l-49 3 7 46 c7 55 29 92 51 89 9 -1 26 -25 39 -52z
m465 -23 c64 -33 70 -41 47 -60 -7 -6 -16 -25 -20 -43 l-6 -31 -21 27 c-11 14
-27 26 -35 26 -11 0 -64 96 -64 116 0 8 43 -7 99 -35z m321 -122 c0 -10 -60
-17 -66 -8 -2 4 1 20 6 35 l11 27 24 -23 c14 -13 25 -27 25 -31z m-912 -37
c23 -62 30 -102 21 -108 -5 -3 -9 4 -9 15 0 12 -9 30 -21 42 -16 16 -28 19
-55 15 l-33 -7 13 38 c9 26 21 39 37 44 30 7 30 7 47 -39z m693 -189 c-1 -5
-4 -8 -8 -8 -5 -1 -18 -6 -29 -13 -17 -9 -24 -9 -33 2 -14 17 3 32 39 38 24 3
32 -2 31 -19z m-96 -101 l0 -98 -75 -21 c-41 -12 -96 -31 -121 -42 l-46 -21
-7 -76 c-7 -76 -8 -78 -56 -126 -77 -76 -90 -61 -24 28 50 66 58 82 62 130 4
47 8 57 31 68 15 8 55 46 90 86 35 39 66 69 68 66 3 -3 -7 -26 -21 -51 -15
-25 -23 -45 -18 -45 14 0 37 38 67 111 23 54 42 89 49 89 1 0 2 -44 1 -98z
m-332 -235 c-4 -38 -10 -57 -19 -57 -19 0 -20 116 -1 123 22 8 26 -7 20 -66z
m-98 -110 c-69 -75 -138 -132 -143 -118 -6 17 79 121 138 168 77 64 80 33 5
-50z m765 53 c25 -13 94 -99 86 -107 -3 -3 -15 2 -26 12 -30 27 -111 16 -205
-28 -43 -21 -75 -40 -72 -43 3 -3 43 5 89 19 124 37 132 38 180 21 34 -11 50
-24 67 -54 20 -36 20 -39 4 -44 -26 -8 -452 -5 -458 3 -2 4 14 18 36 32 23 13
53 37 68 53 32 35 136 84 196 93 56 7 49 23 -10 23 -56 0 -175 -60 -268 -136
-38 -31 -71 -53 -74 -50 -14 14 83 112 174 175 70 48 157 61 213 31z m-715
-77 c-9 -21 -15 -49 -13 -62 2 -19 -7 -32 -40 -57 -41 -32 -72 -37 -144 -25
-14 2 -8 21 5 21 31 0 84 37 141 97 33 35 61 63 63 63 2 0 -4 -17 -12 -37z
m283 -30 c-8 -10 -27 -39 -41 -65 -22 -38 -34 -48 -61 -54 -39 -7 -79 3 -70
17 6 11 142 103 164 112 24 9 24 8 8 -10z"/>
<path d="M1372 1927 c-16 -44 -15 -47 8 -47 12 0 42 -11 69 -24 40 -21 57 -24
105 -19 31 3 53 9 49 13 -13 12 -176 97 -198 104 -17 5 -23 0 -33 -27z"/>
<path d="M1750 1733 c0 -5 13 -15 29 -25 16 -9 43 -35 59 -58 17 -22 33 -37
36 -32 10 16 -13 87 -35 105 -21 17 -89 24 -89 10z"/>
<path d="M1142 1881 c-15 -48 -15 -47 4 -65 22 -23 31 -20 48 16 21 40 20 43
-6 68 -30 27 -33 26 -46 -19z"/>
<path d="M1413 1635 c-24 -14 -43 -30 -43 -36 0 -14 11 -11 33 9 13 11 21 13
24 6 2 -6 9 -19 16 -28 18 -25 81 -12 102 21 21 32 10 44 -47 50 -34 3 -52 -2
-85 -22z"/>
<path d="M1751 1557 c-12 -20 -18 -42 -14 -55 4 -16 -2 -31 -17 -47 -34 -36
-18 -41 29 -9 45 29 52 55 24 87 -18 19 -17 20 22 13 l40 -8 -24 26 c-14 14
-28 26 -32 26 -4 0 -17 -15 -28 -33z"/>
<path d="M1283 1343 c-17 -6 -17 -29 0 -36 7 -2 37 0 67 5 76 14 82 17 75 28
-6 10 -119 13 -142 3z"/>
<path d="M574 467 c-32 -29 -38 -43 -56 -127 -25 -120 -24 -115 -15 -117 4 -2
21 -3 37 -3 24 0 30 4 30 23 0 34 11 42 60 42 39 -1 45 -3 41 -20 -8 -45 -9
-45 37 -45 28 0 28 1 51 118 13 64 26 127 28 140 5 22 4 22 -86 22 -89 0 -92
-1 -127 -33z m132 -53 c-4 -15 -10 -39 -13 -55 -5 -27 -9 -29 -53 -29 l-48 0
2 55 1 55 59 0 c58 0 58 0 52 -26z"/>
<path d="M845 488 c-4 -14 -55 -262 -55 -270 0 -3 16 -2 36 1 l37 6 18 90 c12
57 15 93 9 99 -20 20 -8 26 56 26 38 0 63 -4 59 -9 -5 -10 -45 -187 -45 -203
0 -4 16 -8 35 -8 32 0 35 3 41 38 3 20 14 69 23 109 l17 72 -24 30 c-23 30
-25 31 -113 31 -63 0 -91 -4 -94 -12z"/>
<path d="M1136 488 c-2 -7 -13 -62 -24 -123 -11 -60 -23 -118 -27 -127 -6 -15
-1 -18 32 -18 l39 0 23 118 c13 64 26 127 29 140 4 20 0 22 -32 22 -21 0 -38
-5 -40 -12z"/>
<path d="M1266 488 c-5 -14 -56 -262 -56 -270 0 -3 17 -2 38 1 l37 6 10 80 c6
44 15 79 20 78 6 -1 14 -34 19 -73 12 -97 31 -96 88 7 23 42 43 86 43 96 2 18
21 37 38 37 13 0 2 -52 -14 -64 -15 -11 -61 -154 -54 -166 2 -3 19 -4 37 -2
l34 4 27 132 c15 72 27 135 27 139 0 4 -22 7 -49 7 l-48 0 -39 -77 c-22 -43
-40 -80 -41 -82 -7 -11 -15 13 -26 80 l-13 74 -37 3 c-24 2 -39 -1 -41 -10z"/>
<path d="M1615 488 c-2 -7 -13 -60 -24 -118 -12 -58 -24 -115 -27 -127 -6 -23
-5 -23 99 -23 86 0 106 3 111 16 12 31 5 34 -65 34 -61 0 -70 2 -65 16 3 9 6
25 6 36 0 19 5 20 74 16 69 -5 75 -3 80 16 10 37 7 38 -64 35 -38 -2 -70 0
-70 4 -1 49 -4 47 75 47 58 0 75 3 75 14 0 8 3 21 6 30 5 14 -7 16 -100 16
-76 0 -108 -4 -111 -12z"/>
<path d="M1860 496 c0 -3 12 -34 26 -70 l27 -64 -57 -70 c-31 -39 -53 -73 -48
-75 4 -3 21 -3 37 0 23 3 38 16 59 49 15 24 32 42 37 39 4 -3 14 -24 20 -45
11 -38 14 -40 51 -40 21 0 38 2 38 4 0 2 -13 33 -29 68 l-28 64 53 68 c30 38
54 71 54 73 0 1 -15 3 -34 3 -30 0 -38 -6 -63 -45 -15 -25 -31 -45 -35 -45 -3
0 -13 19 -20 43 -13 38 -18 42 -51 45 -20 2 -37 1 -37 -2z"/>
<path d="M2120 493 c1 -4 13 -35 29 -68 l27 -60 -53 -68 c-55 -71 -65 -94 -37
-83 9 3 23 6 33 6 9 0 30 20 45 45 16 25 32 45 36 45 4 0 13 -20 20 -44 11
-41 14 -44 52 -48 21 -2 41 -2 43 0 2 3 -9 31 -25 63 -17 32 -30 64 -30 70 0
6 23 40 50 75 28 35 50 66 50 69 0 3 -16 5 -35 5 -30 0 -37 -5 -61 -45 -14
-25 -30 -45 -34 -45 -5 0 -15 19 -22 43 -13 38 -18 42 -51 45 -20 2 -37 0 -37
-5z"/>
<path d="M2380 497 c0 -3 13 -34 28 -69 l29 -63 -53 -70 c-29 -38 -51 -72 -49
-75 2 -4 18 -5 34 -2 23 3 38 15 58 48 16 24 31 44 35 44 3 0 13 -19 20 -42
14 -41 17 -43 56 -46 41 -3 51 4 33 23 -5 6 -19 33 -31 62 l-22 51 51 65 c28
36 51 67 51 71 0 3 -15 6 -32 6 -28 0 -37 -7 -61 -45 -16 -25 -32 -45 -36 -45
-4 0 -13 19 -21 43 -14 38 -18 42 -52 45 -21 2 -38 1 -38 -1z"/>
</g>
</svg>
